<?xml version="1.0" encoding="utf-8"?>
<!-- Generator: Adobe Illustrator 22.1.0, SVG Export Plug-In . SVG Version: 6.00 Build 0)  -->
<svg version="1.1" id="Layer_1" xmlns="http://www.w3.org/2000/svg" xmlns:xlink="http://www.w3.org/1999/xlink" x="0px" y="0px"
	 viewBox="0 0 128.8 77" style="enable-background:new 0 0 128.8 77;" xml:space="preserve">
<style type="text/css">
	.st0{fill:none;stroke:#000000;stroke-width:5;stroke-miterlimit:10;}
	.st1{fill:none;}
</style>
<g>
	<path d="M15.8,66.7c-0.7,0.3-0.8-1.2-0.8-2C15.1,29.1,37.1,0.1,64.3,0c1.3,0,2.5,1,2.6,2.3C67,3.8,65.8,5,64.4,5
		C40.6,5,23.5,27.2,22.5,59c0,0.2-0.1,0.8-0.2,1C21.6,61.6,16.6,66.4,15.8,66.7z"/>
	<path class="st0" d="M65.4,2.5"/>
	<path d="M83.8,73.8c-0.2,0.1-0.4,0.1-0.6-0.1c-0.6-0.8,0.4-6.6,0.6-8.5c0.1-1,0.3-1.6,0.6-1.8c3.3-3.5,27.7-8.5,28.8-16.1
		c1.1-7.6-14.5-9.6-21.4-10.1l-5.7,0.2l3.7-4.3c3.9-4.5,4.7-8.9,2.6-13.2C88.1,10.8,72.7,4.7,64.5,5c-1.4,0-2.5-1-2.6-2.4
		c0-1.4,1-2.5,2.4-2.6c9.6-0.4,27.2,6.3,32.6,17.6c1.7,3.5,2.8,8.7-0.6,14.7c5.1,0.7,10.9,2.7,14.7,5.3c3.5,2.4,6.9,6.1,6.9,9.2
		c0,0.3,0.2,6.9-32.7,26.2C84.7,73.4,84.4,73.5,83.8,73.8z"/>
	<path d="M64.4,2.5l-3.9,0c1.3,18.1,1.3,34.5-1,48c-0.8,6.7-1.6,11.3-2.3,14.5C55.1,45.7,45.6,27.4,1.9,19C1.2,18.8,0,18.7,0,19.3
		c0,0.6,0.4,1.7,1.4,2.9c1,1.2,3,3.9,4,4.7C5.7,27.3,6,27.4,7,27.6c43,8.2,45.4,26.2,45.8,47l0,0.6c0,0.4,0.2,0.8,0.5,1h0
		c0.6,0.5,1.3,0.8,2,0.8h0c3.1,0,6.3-2.8,8.9-23.3c0.1-0.5,0.1-0.9,0.2-1.4"/>
	<line class="st1" x1="128.4" y1="19.5" x2="0.4" y2="19.5"/>
	<path d="M64.4,2.5h3.8c-1.3,18.2-1.3,34.7,1,48c0.8,6.7,1.6,11.3,2.3,14.5c2.1-19.4,11.7-37.6,55.4-46.1c0.7-0.1,2-0.2,1.9,0.4
		c-0.2,1-0.5,1.7-1.4,2.9c-1,1.3-3.1,4-4,4.7c-0.3,0.3-0.7,0.4-1.6,0.5c-43,8.2-45.4,26.2-45.8,47l0,0.6c0,0.4-0.2,0.8-0.5,1l0,0
		c-0.6,0.5-1.3,0.8-2,0.8l0,0c-3.1,0-6.3-2.8-8.9-23.3c-0.1-0.5-0.1-0.9-0.2-1.4"/>
</g>
</svg>
